<svg fill="#c8e7ed" xmlns="http://www.w3.org/2000/svg" 
xmlnsXlink="http://www.w3.org/1999/xlink" version="1.1" x="100px" y="0px" viewBox="0 0 100 100" enable-background="new 0 0 100 100" xmlSpace="preserve">
    <path d="M68.8,2.1H31.8c-4.6,0-8.4,3.8-8.4,8.4v78.2c0,4.6,3.8,8.4,8.4,8.4h37.1c4.6,0,8.4-3.8,8.4-8.4V10.5  C77.3,5.9,73.5,2.1,68.8,2.1z M44.6,8.8H56c0.7,0,1.3,0.6,1.3,1.3s-0.6,1.3-1.3,1.3H44.6c-0.7,0-1.3-0.6-1.3-1.3S44,8.8,44.6,8.8z   M50.3,91.4c-1.7,0-3.1-1.4-3.1-3.1c0-1.7,1.4-3.1,3.1-3.1c1.7,0,3.1,1.4,3.1,3.1C53.5,90,52,91.4,50.3,91.4z M73.3,80.5H27.4V17.7  h45.9V80.5z"/>
    <path d="M63.3,44.9h-2.2c-0.3-1.3-0.8-2.5-1.5-3.6l1.8-1.8c0.1-0.1,0.2-0.3,0.2-0.5s-0.1-0.4-0.2-0.5l-2.4-2.4c-0.3-0.3-0.7-0.3-1,0  l-1.8,1.8c-1-0.6-2.1-1.1-3.3-1.4v-2.3c0-0.4-0.3-0.7-0.7-0.7h-3.4c-0.4,0-0.7,0.3-0.7,0.7v2.3c-1.2,0.3-2.4,0.7-3.4,1.4l-2-2  c-0.3-0.3-0.7-0.3-1,0l-2.4,2.4c-0.1,0.1-0.2,0.3-0.2,0.5s0.1,0.4,0.2,0.5l1.9,1.9c-0.7,1.1-1.3,2.4-1.6,3.7h-2.2  c-0.4,0-0.7,0.3-0.7,0.7V49c0,0.4,0.3,0.7,0.7,0.7h2.2c0.3,1.2,0.7,2.3,1.4,3.4l-1.7,1.7C39,54.9,39,55.1,39,55.3s0.1,0.4,0.2,0.5  l2.4,2.4c0.1,0.1,0.3,0.2,0.5,0.2s0.4-0.1,0.5-0.2l1.7-1.7c1.1,0.7,2.4,1.3,3.8,1.6v2c0,0.4,0.3,0.7,0.7,0.7h3.4  c0.4,0,0.7-0.3,0.7-0.7v-2c1.3-0.3,2.5-0.8,3.6-1.5l1.4,1.4c0.1,0.1,0.3,0.2,0.5,0.2c0.2,0,0.3-0.1,0.5-0.2l2.4-2.4  c0.1-0.1,0.2-0.3,0.2-0.5c0-0.2-0.1-0.4-0.2-0.5L59.7,53c0.6-1,1.1-2.2,1.4-3.4h2.2c0.4,0,0.7-0.3,0.7-0.7v-3.4  C63.9,45.2,63.6,44.9,63.3,44.9z M50.3,54.1c-3.7,0-6.8-3-6.8-6.8c0-3.7,3-6.8,6.8-6.8c3.7,0,6.8,3,6.8,6.8  C57.1,51,54.1,54.1,50.3,54.1z"/>
    
    
    
    <!-- <g featurekey="nameLeftFeature-0" 
    transform="matrix(0.70,0,0,1.80,2,28.905774208414744)" fill="#ffffc2"><path d="M7.64 16.66 l-4.14 -7.42 l0 10.26 l-1 0 l0 -14 l6.3 11.16 l-1.16 0 z M14 19.5 l-1 0 l0 -10.26 l-3.9 6.9 l-6 -10.64 l1.14 0 l4.86 8.66 l4.9 -8.66 l0 14 z M12.26 5.5 l1.14 0 l-4.3 7.6 l-0.56 -0.94 z M5 19.5 l-1 0 l0 -8.34 l1 1.74 l0 6.6 z M11.5 19.5 l0 -6.6 l1 -1.74 l0 8.34 l-1 0 z M22.64 19.5 l-1 0 l0 -6.84 l-4.04 -7.16 l1.14 0 l3.36 5.96 l3.4 -5.96 l1.16 0 l-4.02 7.16 l0 6.84 z M20.5 5.5 l2.2 3.9 l-0.6 1.04 l-2.76 -4.94 l1.16 0 z M24.14 19.5 l-1 0 l0 -6.74 l4.12 -7.26 l1.14 0 l-4.26 7.5 l0 6.5 z M32 19.5 l0 -14 l4.5 0 c2.7 0 4.5 1.8 4.5 4.5 c0 1.26 -0.4 2.3 -1.04 3.06 l-0.76 -0.7 c0.5 -0.6 0.8 -1.4 0.8 -2.36 c0 -2.1 -1.4 -3.5 -3.5 -3.5 l-3.5 0 l0 5.5 l3.5 0 c1.2 0 2 -0.8 2 -2 s-0.8 -2 -2 -2 l-1.6 0 l-1.06 -1 l2.66 0 c1.8 0 3 1.2 3 3 s-1.2 3 -3 3 l-3.5 0 l0 6.5 l-1 0 z M33.5 7.359999999999999 l1 0.98 l0 3.16 l-1 0 l0 -4.14 z M36.5 13.5 c0.94 0 1.74 -0.3 2.34 -0.8 l0.76 0.74 c-0.8 0.66 -1.86 1.06 -3.1 1.06 l-1.6 0 l-1.06 -1 l2.66 0 z M33.5 19.5 l0 -5.64 l1 1 l0 4.64 l-1 0 z M53.5 14.76 c0 1.38 -0.4 2.58 -1.1 3.48 l-0.76 -0.68 c0.56 -0.7 0.86 -1.66 0.86 -2.8 l0 -4.5 c0 -2.4 -1.4 -4.02 -3.5 -4.02 s-3.5 1.62 -3.5 4.02 l0 4.5 c0 2.4 1.4 4 3.5 4 c0.9 0 1.7 -0.3 2.3 -0.86 l0.7 0.7 c-0.76 0.76 -1.8 1.14 -3 1.14 c-2.7 0 -4.5 -1.98 -4.5 -4.98 l0 -4.5 c0 -3 1.8 -5 4.5 -5 s4.5 2 4.5 5 l0 4.5 z M47.34 8.7 c-0.2 0.4 -0.34 0.96 -0.34 1.56 l0 4.5 c0 1.5 0.8 2.5 2 2.5 s2 -1 2 -2.5 l0 -4.5 c0 -1.5 -0.8 -2.52 -2 -2.52 c-0.54 0 -1 0.22 -1.3 0.56 l-0.74 -0.7 c0.48 -0.54 1.2 -0.84 2.04 -0.84 c1.8 0 3 1.4 3 3.5 l0 4.5 c0 2.1 -1.2 3.48 -3 3.48 s-3 -1.38 -3 -3.48 l0 -4.5 c0 -0.9 0.2 -1.7 0.6 -2.3 z M59 19.5 l-1 0 l0 -14 l4.5 0 c2.7 0 4.5 1.8 4.5 4.5 c0 1.2 -0.36 2.24 -1 3.06 l-0.76 -0.76 c0.46 -0.6 0.76 -1.4 0.76 -2.3 c0 -2.1 -1.4 -3.5 -3.5 -3.5 l-3.5 0 l0 5.5 l3.5 0 c1.2 0 2 -0.8 2 -2 s-0.8 -2 -2 -2 l-1.64 0 l-1.06 -1 l2.7 0 c1.8 0 3 1.2 3 3 c0 1.6 -0.96 2.76 -2.46 2.96 l2.2 6.54 l-1.08 0 l-2.16 -6.5 l-3 0 l0 6.5 z M59.5 7.4 l1 1 l0 3.1 l-1 0 l0 -4.1 z M63.7 13.36 c0.46 -0.16 0.84 -0.36 1.2 -0.66 l0.7 0.7 c-0.2 0.2 -0.4 0.34 -0.66 0.5 l1.86 5.6 l-1.06 0 z M60.9 14.5 l-1.06 -1 l1.8 0 l0.36 1 l-1.1 0 z M59.5 19.5 l0 -5.64 l1 1 l0 4.64 l-1 0 z"></path></g>
    <g 
    transform="matrix(0.70,0,0,1.80,50,28.905774208414744)" fill="#ffffc2"><path d="M4.5 20 l0 -11.5 l-3.5 0 l0 -3.5 l10.5 0 l0 3.5 l-3.5 0 l0 11.5 l-3.5 0 z M5 19.5 l1 0 l0 -13 l5 0 l0 -1 l-9.5 0 l0 1 l3.5 0 l0 13 z M4.5 7 l-3 0 l0 1 l3 0 l0 -1 z M11 7 l-4.14 0 l0.98 1 l3.16 0 l0 -1 z M7.5 8.4 l-1 -1.04 l0 12.14 l1 0 l0 -11.1 z M18 14.5 l0 5.5 l-3.5 0 l0 -15 l8.5 0 l0 3.5 l-5 0 l0 2.5 l4 0 l0 3.5 l-4 0 z M15 5.5 l0 14 l1 0 l0 -7 l5.5 0 l0 -1 l-5.5 0 l0 -5 l6.5 0 l0 -1 l-7.5 0 z M22.5 7 l-5.66 0 l1.06 1 l4.6 0 l0 -1 z M16.5 11 l1 0 l0 -2.66 l-1 -0.98 l0 3.64 z M21.5 13 l-4.66 0 l1.06 1 l3.6 0 l0 -1 z M17.5 19.5 l0 -5.16 l-1 -0.98 l0 6.14 l1 0 z M31.5 4.74 c3 0 5 2.22 5 5.52 l0 4.5 c0 3.3 -2 5.5 -5 5.5 s-5 -2.2 -5 -5.5 l0 -4.5 c0 -3.3 2 -5.52 5 -5.52 z M36 10.26 c0 -3 -1.8 -5 -4.5 -5 s-4.5 2 -4.5 5 l0 4.5 c0 3 1.8 4.98 4.5 4.98 c1.2 0 2.24 -0.38 3 -1.14 l-0.7 -0.7 c-0.6 0.56 -1.4 0.86 -2.3 0.86 c-2.1 0 -3.5 -1.6 -3.5 -4 l0 -4.5 c0 -2.4 1.4 -4.02 3.5 -4.02 s3.5 1.62 3.5 4.02 l0 4.5 c0 1.14 -0.3 2.1 -0.86 2.8 l0.76 0.68 c0.7 -0.9 1.1 -2.1 1.1 -3.48 l0 -4.5 z M29.1 7.960000000000001 c-0.4 0.6 -0.6 1.4 -0.6 2.3 l0 4.5 c0 2.1 1.2 3.48 3 3.48 s3 -1.38 3 -3.48 l0 -4.5 c0 -2.1 -1.2 -3.5 -3 -3.5 c-0.84 0 -1.56 0.3 -2.04 0.84 l0.74 0.7 c0.3 -0.34 0.76 -0.56 1.3 -0.56 c1.2 0 2 1.02 2 2.52 l0 4.5 c0 1.5 -0.8 2.5 -2 2.5 s-2 -1 -2 -2.5 l0 -4.5 c0 -0.6 0.14 -1.16 0.34 -1.56 z M30 14.76 c0 1.2 0.6 1.98 1.5 1.98 s1.5 -0.78 1.5 -1.98 l0 -4.5 c0 -1.2 -0.6 -2 -1.5 -2 s-1.5 0.8 -1.5 2 l0 4.5 z M43.5 5 l0 11.5 l4.5 0 l0 3.5 l-8 0 l0 -15 l3.5 0 z M40.5 18 l7 0 l0 -1 l-6 0 l0 -11.5 l-1 0 l0 12.5 z M42 16.5 l1 0 l0 -11 l-1 0 l0 11 z M47.5 18.5 l-7 0 l0 1 l7 0 l0 -1 z M55.5 5 l0 15 l-3.5 0 l0 -15 l3.5 0 z M52.5 19.5 l1 0 l0 -14 l-1 0 l0 14 z M54 19.5 l1 0 l0 -14 l-1 0 l0 14 z M64 4.74 c3 0 5 2.22 5 5.52 l0 4.5 c0 3.3 -2 5.5 -5 5.5 s-5 -2.2 -5 -5.5 l0 -4.5 c0 -3.3 2 -5.52 5 -5.52 z M68.5 10.26 c0 -3 -1.8 -5 -4.5 -5 s-4.5 2 -4.5 5 l0 4.5 c0 3 1.8 4.98 4.5 4.98 c1.2 0 2.24 -0.38 3 -1.14 l-0.7 -0.7 c-0.6 0.56 -1.4 0.86 -2.3 0.86 c-2.1 0 -3.5 -1.6 -3.5 -4 l0 -4.5 c0 -2.4 1.4 -4.02 3.5 -4.02 s3.5 1.62 3.5 4.02 l0 4.5 c0 1.14 -0.3 2.1 -0.86 2.8 l0.76 0.68 c0.7 -0.9 1.1 -2.1 1.1 -3.48 l0 -4.5 z M61.6 7.960000000000001 c-0.4 0.6 -0.6 1.4 -0.6 2.3 l0 4.5 c0 2.1 1.2 3.48 3 3.48 s3 -1.38 3 -3.48 l0 -4.5 c0 -2.1 -1.2 -3.5 -3 -3.5 c-0.84 0 -1.56 0.3 -2.04 0.84 l0.74 0.7 c0.3 -0.34 0.76 -0.56 1.3 -0.56 c1.2 0 2 1.02 2 2.52 l0 4.5 c0 1.5 -0.8 2.5 -2 2.5 s-2 -1 -2 -2.5 l0 -4.5 c0 -0.6 0.14 -1.16 0.34 -1.56 z M62.5 14.76 c0 1.2 0.6 1.98 1.5 1.98 s1.5 -0.78 1.5 -1.98 l0 -4.5 c0 -1.2 -0.6 -2 -1.5 -2 s-1.5 0.8 -1.5 2 l0 4.5 z"></path></g>
     
    <g id="" 
    featurekey="sloganFeature-0" 
    transform="matrix(0.58,0,0,0.3,0.29,70)" 
    fill="#ffffc2">
        <path d="M6.82 16.22 c-0.01334 0.66666 -0.076582 1.25 -0.18992 1.75 s-0.30668 0.91334 -0.58002 1.24 s-0.63334 0.57 -1.08 0.73 s-1.01 0.24 -1.69 0.24 c-1.1733 0 -2.0266 -0.32666 -2.56 -0.98 s-0.8 -1.6467 -0.8 -2.98 l0 -7.4 c0 -1.3333 0.27 -2.3266 0.81 -2.98 s1.4633 -0.98 2.77 -0.98 c1.1733 0 2.0134 0.32666 2.52 0.98 s0.77332 1.6467 0.79998 2.98 l0.02 0.92 l-0.92 0 l-0.02 -1.16 c0 -0.33334 -0.03334 -0.67 -0.1 -1.01 s-0.18666 -0.65 -0.36 -0.93 s-0.41668 -0.50666 -0.73002 -0.68 s-0.73 -0.26 -1.25 -0.26 c-0.50666 0 -0.93 0.08 -1.27 0.24 s-0.61 0.38 -0.81 0.66 s-0.33666 0.61 -0.41 0.99 s-0.11 0.79 -0.11 1.23 l0.04 7.5 c0 0.92 0.17 1.64 0.51 2.16 s0.96334 0.78 1.87 0.78 c0.52 0 0.95 -0.07 1.29 -0.21 s0.60666 -0.33666 0.8 -0.59 s0.33 -0.56 0.41 -0.92 s0.12 -0.75334 0.12 -1.18 l0.02 -1.3 l0.92 0 z M16.2 20 l-3.3 -6.22 l-3.06 0 l0 6.22 l-0.98 0 l0 -15 l3.4 0 c0.78666 0 1.46 0.11666 2.02 0.35 s1.02 0.55 1.38 0.95 s0.62666 0.86334 0.8 1.39 s0.26 1.0767 0.26 1.65 c0 0.97334 -0.25 1.85 -0.75 2.63 s-1.1567 1.35 -1.97 1.71 l3.52 6.32 l-1.32 0 z M12.12 5.92 l-2.28 -0.000019531 l0 6.84 l2.42 0 c0.68 0 1.24 -0.10334 1.68 -0.31 s0.78334 -0.47332 1.03 -0.79998 s0.42 -0.7 0.52 -1.12 s0.15 -0.85 0.15 -1.29 c0 -0.46666 -0.08 -0.9 -0.24 -1.3 s-0.39 -0.75 -0.69 -1.05 s-0.66666 -0.53666 -1.1 -0.71 s-0.93 -0.26 -1.49 -0.26 z M18.740000000000002 20 l0 -15 l7.36 0 l0 1.16 l-6.32 0 l0 5.7 l6.26 0 l0 0.92 l-6.26 0 l0 6.06 l6.46 0 l0 1.16 l-7.5 0 z M35.16 20 l-1.1 -4.42 l-4.88 0 l-1.1 4.42 l-1 0 l4.14 -15 l0.86 0 l4.12 15 l-1.04 0 z M31.68 5.9399999999999995 l-2.26 8.68 l4.38 0 z M39.620000000000005 6.1 l0 13.9 l-1.16 0 l0 -13.9 l-3.26 0 l0 -1.1 l7.68 0 l0 1.1 l-3.26 0 z M43.980000000000004 20 l0 -15 l7.36 0 l0 1.16 l-6.32 0 l0 5.7 l6.26 0 l0 0.92 l-6.26 0 l0 6.06 l6.46 0 l0 1.16 l-7.5 0 z M60.94 13.14 l0 6.86 l-1.08 0 l0 -6.86 l-3.62 -8.14 l1.24 0 l2.9 6.94 l2.94 -6.94 l1.24 0 z M68.82000000000001 20.18 c-2.52 0 -3.78 -1.32 -3.78 -3.96 l0 -7.4 c0 -1.3333 0.31666 -2.3266 0.95 -2.98 s1.6567 -0.98 3.07 -0.98 c1.2933 0 2.25 0.33 2.87 0.99 s0.93 1.6367 0.93 2.93 l0 7.44 c0 0.66666 -0.07 1.2467 -0.21 1.74 s-0.37 0.90668 -0.69 1.24 s-0.73666 0.58 -1.25 0.74 s-1.1433 0.24 -1.89 0.24 z M71.80000000000001 8.76 c0 -0.33334 -0.04664 -0.67338 -0.13998 -1.02 s-0.24668 -0.66332 -0.46002 -0.94998 s-0.49668 -0.52 -0.85002 -0.7 s-0.79 -0.27 -1.31 -0.27 c-0.57334 0 -1.05 0.08 -1.43 0.24 s-0.68 0.38334 -0.9 0.67 s-0.37666 0.62332 -0.47 1.01 s-0.14 0.80666 -0.14 1.26 l0 7.1 c0 0.34666 0.04 0.7 0.12 1.06 s0.22334 0.69 0.43 0.99 s0.48666 0.54666 0.84 0.74 s0.79668 0.29 1.33 0.29 c0.57334 0 1.05 -0.07666 1.43 -0.23 s0.68334 -0.36334 0.91 -0.63 s0.39 -0.58332 0.49 -0.94998 s0.15 -0.76332 0.15 -1.19 l0 -7.42 z M78.5 20.18 c-1.2267 0 -2.1768 -0.33336 -2.85 -1 s-1.01 -1.6533 -1.01 -2.96 l0 -11.22 l1.08 0 l0 11.16 c0 0.32 0.04334 0.65666 0.13 1.01 s0.23666 0.67334 0.45 0.96 s0.49668 0.52332 0.85002 0.70998 s0.79 0.28 1.31 0.28 c0.57334 0 1.0467 -0.08334 1.42 -0.25 s0.67334 -0.39666 0.9 -0.69 s0.38666 -0.64 0.48 -1.04 s0.14 -0.82666 0.14 -1.28 l0 -10.86 l1.06 0 l0 11.22 c0 1.3333 -0.32334 2.3266 -0.97 2.98 s-1.6433 0.98 -2.99 0.98 z M91.66 20 l-3.3 -6.22 l-3.06 0 l0 6.22 l-0.98 0 l0 -15 l3.4 0 c0.78666 0 1.46 0.11666 2.02 0.35 s1.02 0.55 1.38 0.95 s0.62666 0.86334 0.8 1.39 s0.26 1.0767 0.26 1.65 c0 0.97334 -0.25 1.85 -0.75 2.63 s-1.1567 1.35 -1.97 1.71 l3.52 6.32 l-1.32 0 z M87.58 5.92 l-2.28 -0.000019531 l0 6.84 l2.42 0 c0.68 0 1.24 -0.10334 1.68 -0.31 s0.78334 -0.47332 1.03 -0.79998 s0.42 -0.7 0.52 -1.12 s0.15 -0.85 0.15 -1.29 c0 -0.46666 -0.08 -0.9 -0.24 -1.3 s-0.39 -0.75 -0.69 -1.05 s-0.66666 -0.53666 -1.1 -0.71 s-0.93 -0.26 -1.49 -0.26 z M100.77999999999999 14.36 l-2.16 0 l0 5.64 l-1.16 0 l0 -15 l3.62 0 c1.32 0 2.3566 0.40334 3.11 1.21 s1.13 1.9767 1.13 3.51 c0 0.68 -0.11 1.3033 -0.33 1.87 s-0.53 1.0567 -0.93 1.47 s-0.87666 0.73334 -1.43 0.96 s-1.17 0.34 -1.85 0.34 z M100.67999999999999 6.02 l-2.06 0.000019531 l0 7.24 l1.86 0 c0.68 0 1.2533 -0.09666 1.72 -0.29 s0.84332 -0.45334 1.13 -0.78 s0.49332 -0.70666 0.61998 -1.14 s0.19 -0.89 0.19 -1.37 c0 -0.49334 -0.04666 -0.96334 -0.14 -1.41 s-0.26668 -0.83666 -0.52002 -1.17 s-0.60668 -0.59668 -1.06 -0.79002 s-1.0333 -0.29 -1.74 -0.29 z M110.03999999999999 20.18 c-2.52 0 -3.78 -1.32 -3.78 -3.96 l0 -7.4 c0 -1.3333 0.31666 -2.3266 0.95 -2.98 s1.6567 -0.98 3.07 -0.98 c1.2933 0 2.25 0.33 2.87 0.99 s0.93 1.6367 0.93 2.93 l0 7.44 c0 0.66666 -0.07 1.2467 -0.21 1.74 s-0.37 0.90668 -0.69 1.24 s-0.73666 0.58 -1.25 0.74 s-1.1433 0.24 -1.89 0.24 z M113.02 8.76 c0 -0.33334 -0.04664 -0.67338 -0.13998 -1.02 s-0.24668 -0.66332 -0.46002 -0.94998 s-0.49668 -0.52 -0.85002 -0.7 s-0.79 -0.27 -1.31 -0.27 c-0.57334 0 -1.05 0.08 -1.43 0.24 s-0.68 0.38334 -0.9 0.67 s-0.37666 0.62332 -0.47 1.01 s-0.14 0.80666 -0.14 1.26 l0 7.1 c0 0.34666 0.04 0.7 0.12 1.06 s0.22334 0.69 0.43 0.99 s0.48666 0.54666 0.84 0.74 s0.79668 0.29 1.33 0.29 c0.57334 0 1.05 -0.07666 1.43 -0.23 s0.68334 -0.36334 0.91 -0.63 s0.39 -0.58332 0.49 -0.94998 s0.15 -0.76332 0.15 -1.19 l0 -7.42 z M123.16 20 l-3.3 -6.22 l-3.06 0 l0 6.22 l-0.98 0 l0 -15 l3.4 0 c0.78666 0 1.46 0.11666 2.02 0.35 s1.02 0.55 1.38 0.95 s0.62666 0.86334 0.8 1.39 s0.26 1.0767 0.26 1.65 c0 0.97334 -0.25 1.85 -0.75 2.63 s-1.1567 1.35 -1.97 1.71 l3.52 6.32 l-1.32 0 z M119.08 5.92 l-2.28 -0.000019531 l0 6.84 l2.42 0 c0.68 0 1.24 -0.10334 1.68 -0.31 s0.78334 -0.47332 1.03 -0.79998 s0.42 -0.7 0.52 -1.12 s0.15 -0.85 0.15 -1.29 c0 -0.46666 -0.08 -0.9 -0.24 -1.3 s-0.39 -0.75 -0.69 -1.05 s-0.66666 -0.53666 -1.1 -0.71 s-0.93 -0.26 -1.49 -0.26 z M128.67999999999998 6.1 l0 13.9 l-1.16 0 l0 -13.9 l-3.26 0 l0 -1.1 l7.68 0 l0 1.1 l-3.26 0 z M134.17999999999998 6.140000000000001 l0 6.06 l6.02 0 l0 1.06 l-6.02 0 l0 6.74 l-1.16 0 l0 -15 l7.28 0 l0 1.14 l-6.12 0 z M144.81999999999996 20.18 c-2.52 0 -3.78 -1.32 -3.78 -3.96 l0 -7.4 c0 -1.3333 0.31666 -2.3266 0.95 -2.98 s1.6567 -0.98 3.07 -0.98 c1.2933 0 2.25 0.33 2.87 0.99 s0.93 1.6367 0.93 2.93 l0 7.44 c0 0.66666 -0.07 1.2467 -0.21 1.74 s-0.37 0.90668 -0.69 1.24 s-0.73666 0.58 -1.25 0.74 s-1.1433 0.24 -1.89 0.24 z M147.79999999999995 8.76 c0 -0.33334 -0.04664 -0.67338 -0.13998 -1.02 s-0.24668 -0.66332 -0.46002 -0.94998 s-0.49668 -0.52 -0.85002 -0.7 s-0.79 -0.27 -1.31 -0.27 c-0.57334 0 -1.05 0.08 -1.43 0.24 s-0.68 0.38334 -0.9 0.67 s-0.37666 0.62332 -0.47 1.01 s-0.14 0.80666 -0.14 1.26 l0 7.1 c0 0.34666 0.04 0.7 0.12 1.06 s0.22334 0.69 0.43 0.99 s0.48666 0.54666 0.84 0.74 s0.79668 0.29 1.33 0.29 c0.57334 0 1.05 -0.07666 1.43 -0.23 s0.68334 -0.36334 0.91 -0.63 s0.39 -0.58332 0.49 -0.94998 s0.15 -0.76332 0.15 -1.19 l0 -7.42 z M150.42 20 l0 -15 l1.08 0 l0 13.92 l5.1 0 l0 1.08 l-6.18 0 z M157.72 20 l0 -15 l1.28 0 l0 15 l-1.28 0 z M164.72 20.18 c-2.52 0 -3.78 -1.32 -3.78 -3.96 l0 -7.4 c0 -1.3333 0.31666 -2.3266 0.95 -2.98 s1.6567 -0.98 3.07 -0.98 c1.2933 0 2.25 0.33 2.87 0.99 s0.93 1.6367 0.93 2.93 l0 7.44 c0 0.66666 -0.07 1.2467 -0.21 1.74 s-0.37 0.90668 -0.69 1.24 s-0.73666 0.58 -1.25 0.74 s-1.1433 0.24 -1.89 0.24 z M167.7 8.76 c0 -0.33334 -0.04664 -0.67338 -0.13998 -1.02 s-0.24668 -0.66332 -0.46002 -0.94998 s-0.49668 -0.52 -0.85002 -0.7 s-0.79 -0.27 -1.31 -0.27 c-0.57334 0 -1.05 0.08 -1.43 0.24 s-0.68 0.38334 -0.9 0.67 s-0.37666 0.62332 -0.47 1.01 s-0.14 0.80666 -0.14 1.26 l0 7.1 c0 0.34666 0.04 0.7 0.12 1.06 s0.22334 0.69 0.43 0.99 s0.48666 0.54666 0.84 0.74 s0.79668 0.29 1.33 0.29 c0.57334 0 1.05 -0.07666 1.43 -0.23 s0.68334 -0.36334 0.91 -0.63 s0.39 -0.58332 0.49 -0.94998 s0.15 -0.76332 0.15 -1.19 l0 -7.42 z M174 20 l0 -15 l7.36 0 l0 1.16 l-6.32 0 l0 5.7 l6.26 0 l0 0.92 l-6.26 0 l0 6.06 l6.46 0 l0 1.16 l-7.5 0 z M190.42000000000002 20 l-1.1 -4.42 l-4.88 0 l-1.1 4.42 l-1 0 l4.14 -15 l0.86 0 l4.12 15 l-1.04 0 z M186.94 5.9399999999999995 l-2.26 8.68 l4.38 0 z M196.14 20.18 c-0.65334 0 -1.2335 -0.086738 -1.7401 -0.26008 s-0.93332 -0.45 -1.28 -0.83 s-0.60332 -0.87666 -0.76998 -1.49 s-0.23666 -1.3533 -0.21 -2.22 l1.2 0 c0 0.42666 0.02 0.87 0.06 1.33 s0.14666 0.88 0.32 1.26 s0.43668 0.69 0.79002 0.93 s0.84334 0.36 1.47 0.36 c0.53334 0 0.98668 -0.08 1.36 -0.24 s0.67668 -0.37334 0.91002 -0.64 s0.39668 -0.58 0.49002 -0.94 s0.14 -0.73334 0.14 -1.12 c0 -0.45334 -0.08334 -0.85 -0.25 -1.19 s-0.38666 -0.64334 -0.66 -0.91 s-0.59334 -0.50332 -0.96 -0.70998 s-0.75 -0.39 -1.15 -0.55 c-0.64 -0.25334 -1.2 -0.50334 -1.68 -0.75 s-0.87334 -0.52332 -1.18 -0.82998 s-0.53666 -0.66332 -0.69 -1.07 s-0.23 -0.90332 -0.23 -1.49 c0 -1.3333 0.35 -2.3266 1.05 -2.98 s1.7033 -0.98 3.01 -0.98 c1.1333 0 2.03 0.33 2.69 0.99 s0.99 1.65 0.99 2.97 l0 1.1 l-1.12 0 l0 -1.2 c0 -0.41334 -0.05 -0.79668 -0.15 -1.15 s-0.25666 -0.66334 -0.47 -0.93 s-0.48334 -0.47666 -0.81 -0.63 s-0.71666 -0.23 -1.17 -0.23 c-1.0667 0 -1.83 0.28 -2.29 0.84 s-0.67 1.3133 -0.63 2.26 c0.01334 0.41334 0.09 0.76668 0.23 1.06 s0.32666 0.55 0.56 0.77 s0.51334 0.41666 0.84 0.59 s0.69 0.34668 1.09 0.52002 c0.46666 0.2 0.93 0.41334 1.39 0.64 s0.89 0.50666 1.29 0.84 c0.4 0.34666 0.73 0.75 0.99 1.21 s0.39 1.03 0.39 1.71 c0 1.32 -0.33666 2.31 -1.01 2.97 s-1.61 0.99 -2.81 0.99 z M201.5 20 l0 -15 l1.28 0 l0 15 l-1.28 0 z M204.72 20 l0 -15 l1.08 0 l0 13.92 l5.1 0 l0 1.08 l-6.18 0 z M214.52 13.14 l0 6.86 l-1.08 0 l0 -6.86 l-3.62 -8.14 l1.24 0 l2.9 6.94 l2.94 -6.94 l1.24 0 z">
        </path>
    </g>-->
</svg>